<svg width="54" height="65" viewBox="0 0 54 65" fill="none" xmlns="http://www.w3.org/2000/svg">
<mask id="path-1-outside-1_3402_4409" maskUnits="userSpaceOnUse" x="0" y="0" width="54" height="65" fill="black">
<rect fill="white" width="54" height="65"/>
<path d="M27 3C40.2548 3 51 13.7452 51 27C51 34.1689 47.8555 40.6023 42.8721 45H43L42.0879 45.6631C41.4429 46.1852 40.77 46.6739 40.0723 47.1279L37.1152 49.2793C33.7624 51.7178 31.0984 54.9836 29.3828 58.7578L28.3652 60.9961C27.8322 62.168 26.1678 62.168 25.6348 60.9961L24.6172 58.7578C22.9016 54.9836 20.2376 51.7178 16.8848 49.2793L13.9268 47.1279C13.2291 46.6739 12.5561 46.1852 11.9111 45.6631L11 45H11.1279C6.14447 40.6023 3 34.1689 3 27C3 13.7452 13.7452 3 27 3Z"/>
</mask>
<path d="M27 3C40.2548 3 51 13.7452 51 27C51 34.1689 47.8555 40.6023 42.8721 45H43L42.0879 45.6631C41.4429 46.1852 40.77 46.6739 40.0723 47.1279L37.1152 49.2793C33.7624 51.7178 31.0984 54.9836 29.3828 58.7578L28.3652 60.9961C27.8322 62.168 26.1678 62.168 25.6348 60.9961L24.6172 58.7578C22.9016 54.9836 20.2376 51.7178 16.8848 49.2793L13.9268 47.1279C13.2291 46.6739 12.5561 46.1852 11.9111 45.6631L11 45H11.1279C6.14447 40.6023 3 34.1689 3 27C3 13.7452 13.7452 3 27 3Z" fill="#303742"/>
<path d="M27 3V0V3ZM51 27H54H51ZM42.8721 45L40.8871 42.7506C39.9517 43.576 39.6247 44.8942 40.066 46.0611C40.5072 47.228 41.6246 48 42.8721 48V45ZM43 45L44.7641 47.4265C45.8152 46.6624 46.2548 45.3084 45.853 44.0725C45.4513 42.8367 44.2995 42 43 42V45ZM42.0879 45.6631L40.3238 43.2365C40.2819 43.267 40.2407 43.2986 40.2004 43.3313L42.0879 45.6631ZM40.0723 47.1279L38.4359 44.6135C38.3923 44.6419 38.3494 44.6714 38.3073 44.702L40.0723 47.1279ZM37.1152 49.2793L38.8797 51.7055L38.8802 51.7052L37.1152 49.2793ZM29.3828 58.7578L32.1138 59.9994L32.1139 59.9993L29.3828 58.7578ZM28.3652 60.9961L31.096 62.2382L31.0963 62.2377L28.3652 60.9961ZM25.6348 60.9961L22.9037 62.2377L22.904 62.2382L25.6348 60.9961ZM24.6172 58.7578L21.8861 59.9993L21.8862 59.9994L24.6172 58.7578ZM16.8848 49.2793L15.1202 51.7055L15.1203 51.7055L16.8848 49.2793ZM13.9268 47.1279L15.6913 44.7018C15.6494 44.6713 15.6067 44.6418 15.5632 44.6136L13.9268 47.1279ZM11.9111 45.6631L13.7987 43.3313C13.7587 43.299 13.718 43.2677 13.6764 43.2374L11.9111 45.6631ZM11 45V42C9.70076 42 8.54918 42.8363 8.1472 44.0718C7.74522 45.3073 8.18421 46.6611 9.23471 47.4256L11 45ZM11.1279 45V48C12.3754 48 13.4928 47.228 13.934 46.0611C14.3753 44.8942 14.0483 43.576 13.1129 42.7506L11.1279 45ZM3 27H0H3ZM27 3V6C38.598 6 48 15.402 48 27H51H54C54 12.0883 41.9117 0 27 0V3ZM51 27H48C48 33.2718 45.253 38.8978 40.8871 42.7506L42.8721 45L44.8571 47.2494C50.4581 42.3068 54 35.066 54 27H51ZM42.8721 45V48H43V45V42H42.8721V45ZM43 45L41.2359 42.5735L40.3238 43.2365L42.0879 45.6631L43.8519 48.0896L44.7641 47.4265L43 45ZM42.0879 45.6631L40.2004 43.3313C39.6369 43.7874 39.0479 44.2152 38.4359 44.6135L40.0723 47.1279L41.7086 49.6424C42.492 49.1325 43.2488 48.583 43.9754 47.9949L42.0879 45.6631ZM40.0723 47.1279L38.3073 44.702L35.3503 46.8534L37.1152 49.2793L38.8802 51.7052L41.8372 49.5538L40.0723 47.1279ZM37.1152 49.2793L35.3507 46.8531C31.5786 49.5965 28.5817 53.2706 26.6517 57.5164L29.3828 58.7578L32.1139 59.9993C33.6151 56.6967 35.9461 53.8391 38.8797 51.7055L37.1152 49.2793ZM29.3828 58.7578L26.6518 57.5162L25.6342 59.7545L28.3652 60.9961L31.0963 62.2377L32.1138 59.9994L29.3828 58.7578ZM28.3652 60.9961L25.6344 59.754C26.1675 58.5821 27.8325 58.582 28.3656 59.754L25.6348 60.9961L22.904 62.2382C24.5031 65.754 29.4969 65.7539 31.096 62.2382L28.3652 60.9961ZM25.6348 60.9961L28.3658 59.7545L27.3482 57.5162L24.6172 58.7578L21.8862 59.9994L22.9037 62.2377L25.6348 60.9961ZM24.6172 58.7578L27.3483 57.5164C25.4183 53.2706 22.4214 49.5965 18.6493 46.8531L16.8848 49.2793L15.1203 51.7055C18.0539 53.839 20.3849 56.6967 21.8861 59.9993L24.6172 58.7578ZM16.8848 49.2793L18.6493 46.8531L15.6913 44.7018L13.9268 47.1279L12.1622 49.5541L15.1202 51.7055L16.8848 49.2793ZM13.9268 47.1279L15.5632 44.6136C14.951 44.2151 14.362 43.7873 13.7987 43.3313L11.9111 45.6631L10.0236 47.9949C10.7503 48.5831 11.5071 49.1326 12.2903 49.6423L13.9268 47.1279ZM11.9111 45.6631L13.6764 43.2374L12.7653 42.5744L11 45L9.23471 47.4256L10.1458 48.0887L11.9111 45.6631ZM11 45V48H11.1279V45V42H11V45ZM11.1279 45L13.1129 42.7506C8.74699 38.8978 6 33.2718 6 27H3H0C0 35.066 3.54195 42.3068 9.14293 47.2494L11.1279 45ZM3 27H6C6 15.402 15.402 6 27 6V3V0C12.0883 2.38419e-07 2.38419e-07 12.0883 0 27H3Z" fill="white" mask="url(#path-1-outside-1_3402_4409)"/>
</svg>
